<svg xmlns="http://www.w3.org/2000/svg" xmlns:xlink="http://www.w3.org/1999/xlink" id="Ebene_1" x="0px" y="0px" viewBox="0 0 24 24" style="enable-background:new 0 0 24 24;" xml:space="preserve"><style type="text/css">	.st0{fill:currentcolor;fill-opacity:0;}	.st1{fill:currentcolor;}</style><g>	<g>		<rect class="st0" width="24" height="24"></rect>		<circle class="st1" cx="4" cy="12" r="1"></circle>		<path class="st1" d="M7.9,11h12.1c0.5,0,0.9,0.4,0.9,0.9v0.1c0,0.5-0.4,0.9-0.9,0.9H7.9C7.4,13,7,12.6,7,12.1v-0.1   C7,11.4,7.4,11,7.9,11z"></path>		<path class="st1" d="M3.9,16h16.1c0.5,0,0.9,0.4,0.9,0.9v0.1c0,0.5-0.4,0.9-0.9,0.9H3.9C3.4,18,3,17.6,3,17.1v-0.1   C3,16.4,3.4,16,3.9,16z"></path>		<path class="st1" d="M3.9,6h16.1C20.6,6,21,6.4,21,6.9v0.1C21,7.6,20.6,8,20.1,8H3.9C3.4,8,3,7.6,3,7.1V6.9C3,6.4,3.4,6,3.9,6z"></path>	</g></g></svg>