<svg xmlns="http://www.w3.org/2000/svg" xmlns:xlink="http://www.w3.org/1999/xlink" viewBox="0 0 710 229" width="1em" height="1em" preserveAspectRatio="xMidYMid meet" style="width: 100%; height: 100%; transform: translate3d(0px, 0px, 0px); content-visibility: visible;"><defs><clipPath id="__lottie_element_2"><rect width="710" height="229" x="0" y="0"></rect></clipPath></defs><g clip-path="url(#__lottie_element_2)"><g transform="matrix(1,0,0,1,355,115)" opacity="1" style="display: block;"><g opacity="1" transform="matrix(1,0,0,1,0,0)"><path stroke-linecap="butt" stroke-linejoin="miter" fill-opacity="0" stroke-miterlimit="10" stroke="#000000" stroke-opacity="1" stroke-width="18.011px" d=" M-241.68299865722656,95.90499877929688 C-241.68299865722656,95.90499877929688 -260.5849914550781,95.90499877929688 -260.5849914550781,95.90499877929688 C-310.8110046386719,95.90499877929688 -344.7919921875,52.96699905395508 -344.7919921875,0 C-344.7919921875,-52.96699905395508 -310.8110046386719,-95.90499877929688 -260.5849914550781,-95.90499877929688 C-260.5849914550781,-95.90499877929688 -241.68299865722656,-95.90499877929688 -241.68299865722656,-95.90499877929688 C-241.68299865722656,-95.90499877929688 241.68299865722656,-95.90499877929688 241.68299865722656,-95.90499877929688 C241.68299865722656,-95.90499877929688 260.5849914550781,-95.90499877929688 260.5849914550781,-95.90499877929688 C310.8110046386719,-95.90499877929688 344.7919921875,-52.96699905395508 344.7919921875,0 C344.7919921875,52.96699905395508 310.8110046386719,95.90499877929688 260.5849914550781,95.90499877929688 C260.5849914550781,95.90499877929688 241.68299865722656,95.90499877929688 241.68299865722656,95.90499877929688 C241.68299865722656,95.90499877929688 -241.68299865722656,95.90499877929688 -241.68299865722656,95.90499877929688z"></path></g></g><g transform="matrix(1,0,0,1,355,115)" opacity="1" style="display: block;"><path stroke-linecap="butt" stroke-linejoin="miter" fill-opacity="0" stroke-miterlimit="4" stroke="#000000" stroke-opacity="1" stroke-width="1" d=" M-221.6649932861328,-45.88999938964844 C-221.6649932861328,-45.88999938964844 -181.4010009765625,24.52199935913086 -181.4010009765625,24.52199935913086 C-181.4010009765625,24.52199935913086 -180.4709930419922,24.52199935913086 -180.4709930419922,24.52199935913086 C-180.4709930419922,24.52199935913086 -140.02200317382812,-45.88999938964844 -140.02200317382812,-45.88999938964844 C-140.02200317382812,-45.88999938964844 -113.17900085449219,-45.88999938964844 -113.17900085449219,-45.88999938964844 C-113.17900085449219,-45.88999938964844 -113.17900085449219,43.624000549316406 -113.17900085449219,43.624000549316406 C-113.17900085449219,43.624000549316406 -132.16700744628906,43.624000549316406 -132.16700744628906,43.624000549316406 C-132.16700744628906,43.624000549316406 -132.16700744628906,-25.4950008392334 -132.16700744628906,-25.4950008392334 C-132.16700744628906,-25.4950008392334 -134.02699279785156,-25.4950008392334 -134.02699279785156,-25.4950008392334 C-134.02699279785156,-25.4950008392334 -173.11700439453125,43.624000549316406 -173.11700439453125,43.624000549316406 C-173.11700439453125,43.624000549316406 -190.0590057373047,43.624000549316406 -190.0590057373047,43.624000549316406 C-190.0590057373047,43.624000549316406 -228.96400451660156,-25.4950008392334 -228.96400451660156,-25.4950008392334 C-228.96400451660156,-25.4950008392334 -231.00900268554688,-25.4950008392334 -231.00900268554688,-25.4950008392334 C-231.00900268554688,-25.4950008392334 -231.00900268554688,43.624000549316406 -231.00900268554688,43.624000549316406 C-231.00900268554688,43.624000549316406 -249.2550048828125,43.624000549316406 -249.2550048828125,43.624000549316406 C-249.2550048828125,43.624000549316406 -249.2550048828125,-45.88999938964844 -249.2550048828125,-45.88999938964844 C-249.2550048828125,-45.88999938964844 -221.6649932861328,-45.88999938964844 -221.6649932861328,-45.88999938964844z"></path><g opacity="1" transform="matrix(1,0,0,1,0,0)"><path fill="rgb(0,0,0)" fill-opacity="1" d=" M-221.6649932861328,-45.88999938964844 C-221.6649932861328,-45.88999938964844 -181.4010009765625,24.52199935913086 -181.4010009765625,24.52199935913086 C-181.4010009765625,24.52199935913086 -180.4709930419922,24.52199935913086 -180.4709930419922,24.52199935913086 C-180.4709930419922,24.52199935913086 -140.02200317382812,-45.88999938964844 -140.02200317382812,-45.88999938964844 C-140.02200317382812,-45.88999938964844 -113.17900085449219,-45.88999938964844 -113.17900085449219,-45.88999938964844 C-113.17900085449219,-45.88999938964844 -113.17900085449219,43.624000549316406 -113.17900085449219,43.624000549316406 C-113.17900085449219,43.624000549316406 -132.16700744628906,43.624000549316406 -132.16700744628906,43.624000549316406 C-132.16700744628906,43.624000549316406 -132.16700744628906,-25.4950008392334 -132.16700744628906,-25.4950008392334 C-132.16700744628906,-25.4950008392334 -134.02699279785156,-25.4950008392334 -134.02699279785156,-25.4950008392334 C-134.02699279785156,-25.4950008392334 -173.11700439453125,43.624000549316406 -173.11700439453125,43.624000549316406 C-173.11700439453125,43.624000549316406 -190.0590057373047,43.624000549316406 -190.0590057373047,43.624000549316406 C-190.0590057373047,43.624000549316406 -228.96400451660156,-25.4950008392334 -228.96400451660156,-25.4950008392334 C-228.96400451660156,-25.4950008392334 -231.00900268554688,-25.4950008392334 -231.00900268554688,-25.4950008392334 C-231.00900268554688,-25.4950008392334 -231.00900268554688,43.624000549316406 -231.00900268554688,43.624000549316406 C-231.00900268554688,43.624000549316406 -249.2550048828125,43.624000549316406 -249.2550048828125,43.624000549316406 C-249.2550048828125,43.624000549316406 -249.2550048828125,-45.88999938964844 -249.2550048828125,-45.88999938964844 C-249.2550048828125,-45.88999938964844 -221.6649932861328,-45.88999938964844 -221.6649932861328,-45.88999938964844z"></path></g></g><g transform="matrix(1,0,0,1,355,115)" opacity="1" style="display: block;"><path stroke-linecap="butt" stroke-linejoin="miter" fill-opacity="0" stroke-miterlimit="4" stroke="#000000" stroke-opacity="1" stroke-width="1" d=" M-1.4869999885559082,-45.88999938964844 C-1.4869999885559082,-45.88999938964844 -1.4869999885559082,-31.15999984741211 -1.4869999885559082,-31.15999984741211 C-1.4869999885559082,-31.15999984741211 -74.6449966430664,-31.15999984741211 -74.6449966430664,-31.15999984741211 C-74.6449966430664,-31.15999984741211 -74.6449966430664,-9.470000267028809 -74.6449966430664,-9.470000267028809 C-74.6449966430664,-9.470000267028809 -8.746000289916992,-9.470000267028809 -8.746000289916992,-9.470000267028809 C-8.746000289916992,-9.470000267028809 -8.746000289916992,5.260000228881836 -8.746000289916992,5.260000228881836 C-8.746000289916992,5.260000228881836 -74.6449966430664,5.260000228881836 -74.6449966430664,5.260000228881836 C-74.6449966430664,5.260000228881836 -74.6449966430664,28.56999969482422 -74.6449966430664,28.56999969482422 C-74.6449966430664,28.56999969482422 1.3040000200271606,28.56999969482422 1.3040000200271606,28.56999969482422 C1.3040000200271606,28.56999969482422 1.3040000200271606,43.624000549316406 1.3040000200271606,43.624000549316406 C1.3040000200271606,43.624000549316406 -93.63300323486328,43.624000549316406 -93.63300323486328,43.624000549316406 C-93.63300323486328,43.624000549316406 -93.63300323486328,-45.88999938964844 -93.63300323486328,-45.88999938964844 C-93.63300323486328,-45.88999938964844 -1.4869999885559082,-45.88999938964844 -1.4869999885559082,-45.88999938964844z"></path><g opacity="1" transform="matrix(1,0,0,1,0,0)"><path fill="rgb(0,0,0)" fill-opacity="1" d=" M-1.4869999885559082,-45.88999938964844 C-1.4869999885559082,-45.88999938964844 -1.4869999885559082,-31.15999984741211 -1.4869999885559082,-31.15999984741211 C-1.4869999885559082,-31.15999984741211 -74.6449966430664,-31.15999984741211 -74.6449966430664,-31.15999984741211 C-74.6449966430664,-31.15999984741211 -74.6449966430664,-9.470000267028809 -74.6449966430664,-9.470000267028809 C-74.6449966430664,-9.470000267028809 -8.746000289916992,-9.470000267028809 -8.746000289916992,-9.470000267028809 C-8.746000289916992,-9.470000267028809 -8.746000289916992,5.260000228881836 -8.746000289916992,5.260000228881836 C-8.746000289916992,5.260000228881836 -74.6449966430664,5.260000228881836 -74.6449966430664,5.260000228881836 C-74.6449966430664,5.260000228881836 -74.6449966430664,28.56999969482422 -74.6449966430664,28.56999969482422 C-74.6449966430664,28.56999969482422 1.3040000200271606,28.56999969482422 1.3040000200271606,28.56999969482422 C1.3040000200271606,28.56999969482422 1.3040000200271606,43.624000549316406 1.3040000200271606,43.624000549316406 C1.3040000200271606,43.624000549316406 -93.63300323486328,43.624000549316406 -93.63300323486328,43.624000549316406 C-93.63300323486328,43.624000549316406 -93.63300323486328,-45.88999938964844 -93.63300323486328,-45.88999938964844 C-93.63300323486328,-45.88999938964844 -1.4869999885559082,-45.88999938964844 -1.4869999885559082,-45.88999938964844z"></path></g></g><g transform="matrix(1,0,0,1,355.9989929199219,115)" opacity="1" style="display: block;"><path stroke-linecap="butt" stroke-linejoin="miter" fill-opacity="0" stroke-miterlimit="4" stroke="#000000" stroke-opacity="1" stroke-width="1" d=" M38.53099822998047,-45.88999938964844 C38.53099822998047,-45.88999938964844 106.8499984741211,20.638999938964844 106.8499984741211,20.638999938964844 C106.8499984741211,20.638999938964844 106.8499984741211,-45.88999938964844 106.8499984741211,-45.88999938964844 C106.8499984741211,-45.88999938964844 125.83699798583984,-45.88999938964844 125.83699798583984,-45.88999938964844 C125.83699798583984,-45.88999938964844 125.83699798583984,43.624000549316406 125.83699798583984,43.624000549316406 C125.83699798583984,43.624000549316406 106.62200164794922,43.624000549316406 106.62200164794922,43.624000549316406 C106.62200164794922,43.624000549316406 38.15999984741211,-23.229000091552734 38.15999984741211,-23.229000091552734 C38.15999984741211,-23.229000091552734 38.15999984741211,43.624000549316406 38.15999984741211,43.624000549316406 C38.15999984741211,43.624000549316406 19.54400062561035,43.624000549316406 19.54400062561035,43.624000549316406 C19.54400062561035,43.624000549316406 19.54400062561035,-45.88999938964844 19.54400062561035,-45.88999938964844 C19.54400062561035,-45.88999938964844 38.53099822998047,-45.88999938964844 38.53099822998047,-45.88999938964844z"></path><g opacity="1" transform="matrix(1,0,0,1,0,0)"><path fill="rgb(0,0,0)" fill-opacity="1" d=" M38.53099822998047,-45.88999938964844 C38.53099822998047,-45.88999938964844 106.8499984741211,20.638999938964844 106.8499984741211,20.638999938964844 C106.8499984741211,20.638999938964844 106.8499984741211,-45.88999938964844 106.8499984741211,-45.88999938964844 C106.8499984741211,-45.88999938964844 125.83699798583984,-45.88999938964844 125.83699798583984,-45.88999938964844 C125.83699798583984,-45.88999938964844 125.83699798583984,43.624000549316406 125.83699798583984,43.624000549316406 C125.83699798583984,43.624000549316406 106.62200164794922,43.624000549316406 106.62200164794922,43.624000549316406 C106.62200164794922,43.624000549316406 38.15999984741211,-23.229000091552734 38.15999984741211,-23.229000091552734 C38.15999984741211,-23.229000091552734 38.15999984741211,43.624000549316406 38.15999984741211,43.624000549316406 C38.15999984741211,43.624000549316406 19.54400062561035,43.624000549316406 19.54400062561035,43.624000549316406 C19.54400062561035,43.624000549316406 19.54400062561035,-45.88999938964844 19.54400062561035,-45.88999938964844 C19.54400062561035,-45.88999938964844 38.53099822998047,-45.88999938964844 38.53099822998047,-45.88999938964844z"></path></g></g><g transform="matrix(1,0,0,1,355.0000305175781,115)" opacity="1" style="display: block;"><path stroke-linecap="butt" stroke-linejoin="miter" fill-opacity="0" stroke-miterlimit="4" stroke="#000000" stroke-opacity="1" stroke-width="1" d=" M163.43800354003906,-45.88999938964844 C163.43800354003906,-45.88999938964844 163.43800354003906,-0.1770000010728836 163.43800354003906,-0.1770000010728836 C163.43800354003906,9.407999992370605 166.10699462890625,17.025999069213867 171.44200134277344,22.679000854492188 C176.77699279785156,28.334999084472656 185.218994140625,31.15999984741211 196.75900268554688,31.15999984741211 C208.302001953125,31.15999984741211 216.77000427246094,28.334999084472656 222.16900634765625,22.679000854492188 C227.5679931640625,17.025999069213867 230.26800537109375,9.407999992370605 230.26800537109375,-0.1770000010728836 C230.26800537109375,-0.1770000010728836 230.26800537109375,-45.88999938964844 230.26800537109375,-45.88999938964844 C230.26800537109375,-45.88999938964844 249.2550048828125,-45.88999938964844 249.2550048828125,-45.88999938964844 C249.2550048828125,-45.88999938964844 249.2550048828125,-0.24199999868869781 249.2550048828125,-0.24199999868869781 C249.2550048828125,7.203000068664551 248.04200744628906,13.786999702453613 245.61900329589844,19.5049991607666 C243.1929931640625,25.22599983215332 239.6820068359375,30.025999069213867 235.0800018310547,33.9109992980957 C230.4810028076172,37.79600143432617 224.947998046875,40.76599884033203 218.48500061035156,42.814998626708984 C212.0189971923828,44.86199951171875 204.80799865722656,45.88999938964844 196.85299682617188,45.88999938964844 C188.7729949951172,45.88999938964844 181.53199768066406,44.86199951171875 175.1300048828125,42.814998626708984 C168.72500610351562,40.76599884033203 163.2220001220703,37.79600143432617 158.6230010986328,33.9109992980957 C154.02099609375,30.025999069213867 150.50999450683594,25.22599983215332 148.08700561523438,19.5049991607666 C145.66099548339844,13.786999702453613 144.4510040283203,7.203000068664551 144.4510040283203,-0.24199999868869781 C144.4510040283203,-0.24199999868869781 144.4510040283203,-45.88999938964844 144.4510040283203,-45.88999938964844 C144.4510040283203,-45.88999938964844 163.43800354003906,-45.88999938964844 163.43800354003906,-45.88999938964844z"></path><g opacity="1" transform="matrix(1,0,0,1,0,0)"><path fill="rgb(0,0,0)" fill-opacity="1" d=" M163.43800354003906,-45.88999938964844 C163.43800354003906,-45.88999938964844 163.43800354003906,-0.1770000010728836 163.43800354003906,-0.1770000010728836 C163.43800354003906,9.407999992370605 166.10699462890625,17.025999069213867 171.44200134277344,22.679000854492188 C176.77699279785156,28.334999084472656 185.218994140625,31.15999984741211 196.75900268554688,31.15999984741211 C208.302001953125,31.15999984741211 216.77000427246094,28.334999084472656 222.16900634765625,22.679000854492188 C227.5679931640625,17.025999069213867 230.26800537109375,9.407999992370605 230.26800537109375,-0.1770000010728836 C230.26800537109375,-0.1770000010728836 230.26800537109375,-45.88999938964844 230.26800537109375,-45.88999938964844 C230.26800537109375,-45.88999938964844 249.2550048828125,-45.88999938964844 249.2550048828125,-45.88999938964844 C249.2550048828125,-45.88999938964844 249.2550048828125,-0.24199999868869781 249.2550048828125,-0.24199999868869781 C249.2550048828125,7.203000068664551 248.04200744628906,13.786999702453613 245.61900329589844,19.5049991607666 C243.1929931640625,25.22599983215332 239.6820068359375,30.025999069213867 235.0800018310547,33.9109992980957 C230.4810028076172,37.79600143432617 224.947998046875,40.76599884033203 218.48500061035156,42.814998626708984 C212.0189971923828,44.86199951171875 204.80799865722656,45.88999938964844 196.85299682617188,45.88999938964844 C188.7729949951172,45.88999938964844 181.53199768066406,44.86199951171875 175.1300048828125,42.814998626708984 C168.72500610351562,40.76599884033203 163.2220001220703,37.79600143432617 158.6230010986328,33.9109992980957 C154.02099609375,30.025999069213867 150.50999450683594,25.22599983215332 148.08700561523438,19.5049991607666 C145.66099548339844,13.786999702453613 144.4510040283203,7.203000068664551 144.4510040283203,-0.24199999868869781 C144.4510040283203,-0.24199999868869781 144.4510040283203,-45.88999938964844 144.4510040283203,-45.88999938964844 C144.4510040283203,-45.88999938964844 163.43800354003906,-45.88999938964844 163.43800354003906,-45.88999938964844z"></path></g></g><g style="display: none;" transform="matrix(1,0,0,1,354.5,115)" opacity="1"><g opacity="1" transform="matrix(1,0,0,1,0,0)"><path fill="rgb(0,0,0)" fill-opacity="1" d=" M67.58976745605469,67.22579193115234 C67.58976745605469,67.22579193115234 55.64970016479492,67.32310485839844 55.64970016479492,67.32310485839844 C55.64970016479492,67.32310485839844 -0.9192411303520203,66.99656677246094 -0.9192411303520203,66.99656677246094 C-0.9192411303520203,66.99656677246094 -57.3213005065918,67.32310485839844 -57.3213005065918,67.32310485839844 C-57.3213005065918,67.32310485839844 -69.43923950195312,67.22579193115234 -69.43923950195312,67.22579193115234 C-69.43923950195312,67.22579193115234 -13.028175354003906,67.22540283203125 -13.028175354003906,67.22540283203125 C-13.028175354003906,67.22540283203125 -68.66584777832031,67.65962219238281 -68.66584777832031,67.65962219238281 C-68.66584777832031,67.65962219238281 -56.627845764160156,72.2103042602539 -56.627845764160156,72.2103042602539 C-56.627845764160156,72.2103042602539 -0.24979378283023834,71.26309204101562 -0.24979378283023834,71.26309204101562 C-0.24979378283023834,71.26309204101562 56.3431510925293,72.2103042602539 56.3431510925293,72.2103042602539 C56.3431510925293,72.2103042602539 68.36315155029297,67.65962219238281 68.36315155029297,67.65962219238281 C68.36315155029297,67.65962219238281 11.028825759887695,67.22540283203125 11.028825759887695,67.22540283203125 C11.028825759887695,67.22540283203125 67.58976745605469,67.22579193115234 67.58976745605469,67.22579193115234z"></path><path stroke-linecap="butt" stroke-linejoin="miter" fill-opacity="0" stroke-miterlimit="10" stroke="#000000" stroke-opacity="1" stroke-width="1" d=" M67.58976745605469,67.22579193115234 C67.58976745605469,67.22579193115234 55.64970016479492,67.32310485839844 55.64970016479492,67.32310485839844 C55.64970016479492,67.32310485839844 -0.9192411303520203,66.99656677246094 -0.9192411303520203,66.99656677246094 C-0.9192411303520203,66.99656677246094 -57.3213005065918,67.32310485839844 -57.3213005065918,67.32310485839844 C-57.3213005065918,67.32310485839844 -69.43923950195312,67.22579193115234 -69.43923950195312,67.22579193115234 C-69.43923950195312,67.22579193115234 -13.028175354003906,67.22540283203125 -13.028175354003906,67.22540283203125 C-13.028175354003906,67.22540283203125 -68.66584777832031,67.65962219238281 -68.66584777832031,67.65962219238281 C-68.66584777832031,67.65962219238281 -56.627845764160156,72.2103042602539 -56.627845764160156,72.2103042602539 C-56.627845764160156,72.2103042602539 -0.24979378283023834,71.26309204101562 -0.24979378283023834,71.26309204101562 C-0.24979378283023834,71.26309204101562 56.3431510925293,72.2103042602539 56.3431510925293,72.2103042602539 C56.3431510925293,72.2103042602539 68.36315155029297,67.65962219238281 68.36315155029297,67.65962219238281 C68.36315155029297,67.65962219238281 11.028825759887695,67.22540283203125 11.028825759887695,67.22540283203125 C11.028825759887695,67.22540283203125 67.58976745605469,67.22579193115234 67.58976745605469,67.22579193115234z"></path></g></g></g></svg>